# xmcd
#
# Track frame offsets: 
#        150
#        25982
#        45923
#        58732
#        77591
#        96479
#        114110
#        129896
#        143998
#        165882
#        183329
#        200907
#        219100
#        237786
#        254919
#        273364
#        290148
#        309588
#        325525
#        344904
#
# Disc length: 4761 seconds
#
# Revision: 3
# Processed by: cddbd v1.5.2PL0 Copyright (c) Steve Scherf et al.
# Submitted via: ExactAudioCopy v1.0b1
#
DISCID=25129714
DTITLE=Various Artist - 100 Hits '90s
DYEAR=2007
DGENRE=Pop
TTITLE0=The Farm - All Together Now
TTITLE1=Shakespear's Sister - I Don't Care
TTITLE2=Barenaked Ladies - One Week
TTITLE3=Catatonia - Mulder And Scully
TTITLE4=Kylie Minogue - Put Yourself In My Place
TTITLE5=Lightning Seeds - Lucky You
TTITLE6=Echobelly - Great Things
TTITLE7=The Remembrandts - I'll Be There For You
TTITLE8=Tanita Tikaram - Twist In My Sobriety
TTITLE9=Scarlet - Independent Love Song
TTITLE10=The Corrs - Dreams
TTITLE11=Len - Steal My Sunshine
TTITLE12=Ini Kamoze - Here Comes The Hotstepper
TTITLE13=Londonbeat - I've Been Thinking About You
TTITLE14=Mark Owen - Clementine
TTITLE15=Crash Test Dummies - Mmm Mmm Mmm Mmm
TTITLE16=Suggs - I'm Only Sleeping
TTITLE17=Hothouse Flowers - Give It Up
TTITLE18=Jimmy Nail - Crocodile Shoes
TTITLE19=The Mike Flowers Pops - Wonderwall
EXTD=
EXTT0=
EXTT1=
EXTT2=
EXTT3=
EXTT4=
EXTT5=
EXTT6=
EXTT7=
EXTT8=
EXTT9=
EXTT10=
EXTT11=
EXTT12=
EXTT13=
EXTT14=
EXTT15=
EXTT16=
EXTT17=
EXTT18=
EXTT19=
PLAYORDER=
